%TF.GenerationSoftware,KiCad,Pcbnew,7.0.9*%
%TF.CreationDate,2023-11-27T16:58:42+01:00*%
%TF.ProjectId,01-getting-started,30312d67-6574-4746-996e-672d73746172,0*%
%TF.SameCoordinates,Original*%
%TF.FileFunction,Legend,Bot*%
%TF.FilePolarity,Positive*%
%FSLAX46Y46*%
G04 Gerber Fmt 4.6, Leading zero omitted, Abs format (unit mm)*
G04 Created by KiCad (PCBNEW 7.0.9) date 2023-11-27 16:58:42*
%MOMM*%
%LPD*%
G01*
G04 APERTURE LIST*
%ADD10C,0.150000*%
%ADD11C,0.120000*%
G04 APERTURE END LIST*
D10*
X146125714Y-104071009D02*
X145982857Y-104118628D01*
X145982857Y-104118628D02*
X145935238Y-104166247D01*
X145935238Y-104166247D02*
X145887619Y-104261485D01*
X145887619Y-104261485D02*
X145887619Y-104404342D01*
X145887619Y-104404342D02*
X145935238Y-104499580D01*
X145935238Y-104499580D02*
X145982857Y-104547200D01*
X145982857Y-104547200D02*
X146078095Y-104594819D01*
X146078095Y-104594819D02*
X146459047Y-104594819D01*
X146459047Y-104594819D02*
X146459047Y-103594819D01*
X146459047Y-103594819D02*
X146125714Y-103594819D01*
X146125714Y-103594819D02*
X146030476Y-103642438D01*
X146030476Y-103642438D02*
X145982857Y-103690057D01*
X145982857Y-103690057D02*
X145935238Y-103785295D01*
X145935238Y-103785295D02*
X145935238Y-103880533D01*
X145935238Y-103880533D02*
X145982857Y-103975771D01*
X145982857Y-103975771D02*
X146030476Y-104023390D01*
X146030476Y-104023390D02*
X146125714Y-104071009D01*
X146125714Y-104071009D02*
X146459047Y-104071009D01*
X145601904Y-103594819D02*
X145030476Y-103594819D01*
X145316190Y-104594819D02*
X145316190Y-103594819D01*
X144173333Y-104594819D02*
X144744761Y-104594819D01*
X144459047Y-104594819D02*
X144459047Y-103594819D01*
X144459047Y-103594819D02*
X144554285Y-103737676D01*
X144554285Y-103737676D02*
X144649523Y-103832914D01*
X144649523Y-103832914D02*
X144744761Y-103880533D01*
D11*
%TO.C,BT1*%
X159650000Y-98420000D02*
X159650000Y-100130000D01*
X159650000Y-94620000D02*
X159650000Y-92910000D01*
X159650000Y-92910000D02*
X156032000Y-92910000D01*
X156032000Y-100130000D02*
X159650000Y-100130000D01*
X153187300Y-88410000D02*
X137492700Y-88410000D01*
X149200000Y-104630000D02*
X153187300Y-104630000D01*
X147000000Y-102430000D02*
X149200000Y-104630000D01*
X143680000Y-102430000D02*
X147000000Y-102430000D01*
X143680000Y-102430000D02*
X141480000Y-104630000D01*
X137492700Y-104630000D02*
X141480000Y-104630000D01*
X134648000Y-92910000D02*
X131030000Y-92910000D01*
X131030000Y-100130000D02*
X134648000Y-100130000D01*
X131030000Y-98420000D02*
X131030000Y-100130000D01*
X131030000Y-94620000D02*
X131030000Y-92910000D01*
X153185371Y-104631789D02*
G75*
G03*
X156032000Y-100130000I-7845350J8111775D01*
G01*
X156031998Y-92910001D02*
G75*
G03*
X153185371Y-88408211I-10692018J-3610009D01*
G01*
X134648000Y-100130000D02*
G75*
G03*
X137494629Y-104631789I10692020J3610012D01*
G01*
X137494629Y-88408211D02*
G75*
G03*
X134648000Y-92910000I7845391J-8111801D01*
G01*
%TD*%
M02*
